<?xml version="1.0" encoding="UTF-8" standalone="no"?>
<!-- Created with Inkscape (http://www.inkscape.org/) -->

<svg
   xmlns:dc="http://purl.org/dc/elements/1.1/"
   xmlns:cc="http://creativecommons.org/ns#"
   xmlns:rdf="http://www.w3.org/1999/02/22-rdf-syntax-ns#"
   xmlns:svg="http://www.w3.org/2000/svg"
   xmlns="http://www.w3.org/2000/svg"
   xmlns:sodipodi="http://sodipodi.sourceforge.net/DTD/sodipodi-0.dtd"
   xmlns:inkscape="http://www.inkscape.org/namespaces/inkscape"
   width="210mm"
   height="297mm"
   id="svg2985"
   version="1.1"
   inkscape:version="0.48.4 r9939"
   sodipodi:docname="Rysunek1.pdf">
  <defs
     id="defs3" />
  <sodipodi:namedview
     inkscape:document-units="mm"
     id="base"
     pagecolor="#ffffff"
     bordercolor="#666666"
     borderopacity="1.0"
     inkscape:pageopacity="0.0"
     inkscape:pageshadow="2"
     inkscape:zoom="1"
     inkscape:cx="332.5"
     inkscape:cy="640"
     inkscape:current-layer="layer1"
     showgrid="false"
     inkscape:window-width="1280"
     inkscape:window-height="962"
     inkscape:window-x="-8"
     inkscape:window-y="-8"
     inkscape:window-maximized="1" />
  <metadata
     id="metadata4">
    <rdf:RDF>
      <cc:Work
         rdf:about="">
        <dc:format>image/svg+xml</dc:format>
        <dc:type
           rdf:resource="http://purl.org/dc/dcmitype/StillImage" />
        <dc:title></dc:title>
      </cc:Work>
    </rdf:RDF>
  </metadata>
  <g
     inkscape:label="Layer 1"
     inkscape:groupmode="layer"
     id="layer1">
    <rect
       style="fill:#000000;fill-opacity:1;stroke:none"
       id="rect3071"
       width="251"
       height="259"
       x="68"
       y="55.362183" />
    <rect
       style="fill:#000000;fill-opacity:1;stroke:none"
       id="rect3071-4"
       width="251"
       height="259"
       x="404.5"
       y="60.862183" />
    <rect
       style="fill:#000000;fill-opacity:1;stroke:none"
       id="rect3071-5"
       width="251"
       height="259"
       x="66.25"
       y="356.11218" />
    <rect
       style="fill:#000000;fill-opacity:1;stroke:none"
       id="rect3071-4-5"
       width="251"
       height="259"
       x="402.75"
       y="361.61218" />
    <rect
       style="fill:#000000;fill-opacity:1;stroke:none"
       id="rect3071-1"
       width="251"
       height="259"
       x="69.25"
       y="688.11218" />
    <rect
       style="fill:#ffffff;fill-opacity:1;stroke:none"
       id="rect3071-4-7"
       width="251"
       height="259"
       x="405.75"
       y="693.61218" />
    <path
       style="fill:#1a1a1a;fill-opacity:1;stroke:none"
       d="m 405,190.36218 0,-128.999997 125,0 125,0 0,128.999997 0,129 -125,0 -125,0 0,-129 z"
       id="path3121"
       inkscape:connector-curvature="0" />
    <path
       style="fill:#cccccc;fill-opacity:1;stroke:none"
       d="m 67,485.36218 0,-129 125,0 125,0 0,129 0,129 -125,0 -125,0 0,-129 z"
       id="path3123"
       inkscape:connector-curvature="0" />
    <path
       style="fill:#e6e6e6;fill-opacity:1;stroke:none"
       d="m 403,491.36218 0,-129 125,0 125,0 0,129 0,129 -125,0 -125,0 0,-129 z"
       id="path3125"
       inkscape:connector-curvature="0" />
    <path
       style="fill:#666666;fill-opacity:1;stroke:none"
       d="m 70,817.36218 0,-129 125,0 125,0 0,129 0,129 -125,0 -125,0 0,-129 z"
       id="path3127"
       inkscape:connector-curvature="0" />
    <path
       style="fill:#ffffff;fill-opacity:1;stroke:none"
       d="m 406,823.36218 0,-129 125,0 125,0 0,129 0,129 -125,0 -125,0 0,-129 z"
       id="path3129"
       inkscape:connector-curvature="0" />
    <path
       style="fill:#999999;fill-opacity:1;stroke:none"
       d="m 68.5,184.86218 0,-129.499997 125,0 125,0 0,129.499997 0,129.5 -125,0 -125,0 0,-129.5 z"
       id="path3899"
       inkscape:connector-curvature="0" />
    <path
       style="fill:#1a1a1a;fill-opacity:1;stroke:none"
       d="m 405.5,190.36218 0,-128.999997 124.5,0 124.5,0 0,128.999997 0,129 -124.5,0 -124.5,0 0,-129 z"
       id="path3901"
       inkscape:connector-curvature="0" />
    <path
       style="fill:#b3b3b3;fill-opacity:1;stroke:none"
       d="m 405.5,190.36218 0,-128.999997 124.5,0 124.5,0 0,128.999997 0,129 -124.5,0 -124.5,0 0,-129 z"
       id="path3903"
       inkscape:connector-curvature="0" />
    <path
       style="fill:#f2f2f2;fill-opacity:1;stroke:none"
       d="m 70.5,817.36218 0,-129 124.5,0 124.5,0 0,129 0,129 -124.5,0 -124.5,0 0,-129 z"
       id="path3905"
       inkscape:connector-curvature="0" />
    <path
       style="fill:#ffffff;fill-opacity:1;stroke:none"
       d="m 406.5,823.36218 0,-129 124.5,0 124.5,0 0,129 0,129 -124.5,0 -124.5,0 0,-129 z"
       id="path3907"
       inkscape:connector-curvature="0" />
  </g>
</svg>
